<svg id="katman_1" data-name="katman 1" xmlns="http://www.w3.org/2000/svg" xmlns:xlink="http://www.w3.org/1999/xlink" viewBox="0 0 74.7 78"><defs><style>.cls-1{fill:url(#Adsız_degrade_12);}.cls-2{fill:url(#Adsız_degrade_12-2);}.cls-3{fill:url(#Adsız_degrade_12-3);}.cls-4{fill:url(#Adsız_degrade_12-4);}</style><linearGradient id="Adsız_degrade_12" x1="163.84" y1="155.38" x2="183.73" y2="146.2" gradientUnits="userSpaceOnUse"><stop offset="0" stop-color="#662d91"/><stop offset="1" stop-color="#f4d03f"/></linearGradient><linearGradient id="Adsız_degrade_12-2" x1="114.76" y1="168.29" x2="155.73" y2="147.8" xlink:href="#Adsız_degrade_12"/><linearGradient id="Adsız_degrade_12-3" x1="167.5" y1="125" x2="173.66" y2="125" xlink:href="#Adsız_degrade_12"/><linearGradient id="Adsız_degrade_12-4" x1="177.34" y1="125" x2="183.5" y2="125" xlink:href="#Adsız_degrade_12"/></defs><title>logom2</title><path class="cls-1" d="M164,111v78h23V111Zm11.5,24.5a11,11,0,1,1,11-11A11,11,0,0,1,175.5,135.5Z" transform="translate(-112.3 -111)"/><path class="cls-2" d="M161,189H140.25V138.18q0-2.89-3.6-2.89t-3.6,2.78V189H112.3V125.69H133v2.13q4.16-2.56,12.85-2.56a23.53,23.53,0,0,1,10.36,2.29q4.74,2.29,4.74,6.71Z" transform="translate(-112.3 -111)"/><path class="cls-3" d="M173.66,131.5l-6.16-5v-3l6.16-5v3L169.4,125l4.26,3.44Z" transform="translate(-112.3 -111)"/><path class="cls-4" d="M183.5,126.49l-6.16,5v-3.06L181.6,125l-4.26-3.46v-3l6.16,5Z" transform="translate(-112.3 -111)"/></svg>